<svg xmlns="http://www.w3.org/2000/svg" xmlns:xlink="http://www.w3.org/1999/xlink" width="1080" zoomAndPan="magnify" viewBox="0 0 810 809.999993" height="1080" preserveAspectRatio="xMidYMid meet" version="1.0"><defs><clipPath id="38b9eddbb2"><path d="M 368.765625 368.765625 L 441.515625 368.765625 L 441.515625 441.515625 L 368.765625 441.515625 Z M 368.765625 368.765625 " clip-rule="nonzero"/></clipPath></defs><g clip-path="url(#38b9eddbb2)"><path fill="#cb6ce6" d="M 404.507812 369.285156 C 404.507812 368.984375 404.75 368.746094 405.054688 368.746094 C 405.351562 368.746094 405.59375 368.984375 405.59375 369.285156 L 405.59375 388.527344 C 406.015625 390.34375 406.667969 392.074219 407.515625 393.683594 L 413.765625 370.359375 C 413.84375 370.074219 414.140625 369.902344 414.433594 369.976562 C 414.722656 370.054688 414.890625 370.355469 414.816406 370.640625 L 408.289062 395.011719 C 408.609375 395.523438 408.953125 396.027344 409.320312 396.511719 L 422.433594 373.800781 C 422.585938 373.542969 422.914062 373.453125 423.171875 373.601562 C 423.433594 373.75 423.519531 374.082031 423.371094 374.335938 L 410.046875 397.421875 C 410.320312 397.75 410.605469 398.0625 410.898438 398.371094 L 429.914062 379.359375 C 430.125 379.144531 430.472656 379.144531 430.683594 379.359375 C 430.894531 379.570312 430.894531 379.917969 430.683594 380.128906 L 411.664062 399.144531 C 411.972656 399.4375 412.292969 399.722656 412.617188 400 L 435.699219 386.671875 C 435.960938 386.519531 436.289062 386.609375 436.441406 386.871094 C 436.59375 387.128906 436.5 387.460938 436.242188 387.609375 L 413.53125 400.722656 C 414.015625 401.089844 414.511719 401.429688 415.03125 401.753906 L 439.394531 395.222656 C 439.6875 395.148438 439.984375 395.320312 440.066406 395.613281 C 440.140625 395.898438 439.96875 396.199219 439.675781 396.277344 L 416.359375 402.519531 C 417.964844 403.375 419.699219 404.027344 421.515625 404.449219 L 440.757812 404.449219 C 441.054688 404.449219 441.296875 404.691406 441.296875 404.988281 C 441.296875 405.292969 441.054688 405.535156 440.757812 405.535156 L 421.515625 405.535156 C 419.695312 405.953125 417.964844 406.605469 416.359375 407.457031 L 439.675781 413.710938 C 439.96875 413.785156 440.140625 414.082031 440.066406 414.375 C 439.984375 414.660156 439.6875 414.832031 439.394531 414.757812 L 415.03125 408.226562 C 414.511719 408.550781 414.015625 408.894531 413.53125 409.261719 L 436.242188 422.375 C 436.5 422.519531 436.59375 422.855469 436.441406 423.113281 C 436.289062 423.375 435.960938 423.460938 435.699219 423.316406 L 412.617188 409.988281 C 412.292969 410.261719 411.972656 410.542969 411.664062 410.835938 L 430.683594 429.851562 C 430.894531 430.066406 430.894531 430.40625 430.683594 430.625 C 430.472656 430.835938 430.125 430.835938 429.914062 430.625 L 410.898438 411.609375 C 410.605469 411.914062 410.320312 412.234375 410.046875 412.558594 L 423.371094 435.644531 C 423.519531 435.902344 423.433594 436.230469 423.171875 436.382812 C 422.914062 436.527344 422.585938 436.441406 422.433594 436.183594 L 409.320312 413.472656 C 408.953125 413.953125 408.609375 414.453125 408.289062 414.96875 L 414.816406 439.335938 C 414.890625 439.628906 414.722656 439.925781 414.433594 440.003906 C 414.140625 440.082031 413.84375 439.910156 413.765625 439.617188 L 407.515625 416.300781 C 406.664062 417.90625 406.015625 419.636719 405.59375 421.457031 L 405.59375 440.695312 C 405.59375 440.996094 405.351562 441.238281 405.054688 441.238281 C 404.75 441.238281 404.507812 440.996094 404.507812 440.695312 L 404.507812 421.457031 C 404.085938 419.636719 403.433594 417.90625 402.585938 416.296875 L 396.335938 439.617188 C 396.257812 439.910156 395.960938 440.078125 395.667969 440.003906 C 395.378906 439.925781 395.210938 439.628906 395.285156 439.335938 L 401.8125 414.96875 C 401.492188 414.453125 401.148438 413.953125 400.78125 413.464844 L 387.667969 436.183594 C 387.519531 436.441406 387.1875 436.527344 386.929688 436.382812 C 386.667969 436.230469 386.582031 435.902344 386.730469 435.644531 L 400.054688 412.558594 C 399.78125 412.234375 399.5 411.914062 399.203125 411.609375 L 380.1875 430.625 C 379.976562 430.835938 379.628906 430.835938 379.417969 430.625 C 379.207031 430.40625 379.207031 430.066406 379.417969 429.851562 L 398.4375 410.835938 C 398.128906 410.542969 397.808594 410.261719 397.484375 409.988281 L 374.402344 423.316406 C 374.140625 423.460938 373.8125 423.375 373.660156 423.113281 C 373.515625 422.855469 373.601562 422.519531 373.859375 422.375 L 396.570312 409.261719 C 396.089844 408.894531 395.589844 408.550781 395.070312 408.226562 L 370.707031 414.757812 C 370.414062 414.832031 370.117188 414.660156 370.042969 414.375 C 369.960938 414.082031 370.132812 413.785156 370.425781 413.710938 L 393.742188 407.457031 C 392.136719 406.605469 390.40625 405.957031 388.585938 405.535156 L 369.34375 405.535156 C 369.046875 405.535156 368.804688 405.292969 368.804688 404.988281 C 368.804688 404.691406 369.046875 404.449219 369.34375 404.449219 L 388.585938 404.449219 C 390.402344 404.027344 392.136719 403.375 393.742188 402.519531 L 370.425781 396.277344 C 370.132812 396.199219 369.960938 395.898438 370.042969 395.613281 C 370.117188 395.320312 370.414062 395.148438 370.707031 395.222656 L 395.070312 401.753906 C 395.589844 401.429688 396.085938 401.089844 396.570312 400.722656 L 373.859375 387.609375 C 373.601562 387.460938 373.507812 387.128906 373.660156 386.871094 C 373.8125 386.609375 374.140625 386.519531 374.402344 386.671875 L 397.484375 400 C 397.808594 399.722656 398.128906 399.4375 398.4375 399.144531 L 379.417969 380.128906 C 379.207031 379.917969 379.207031 379.570312 379.417969 379.359375 C 379.628906 379.144531 379.976562 379.144531 380.1875 379.359375 L 399.203125 398.378906 C 399.5 398.070312 399.78125 397.75 400.054688 397.421875 L 386.730469 374.335938 C 386.582031 374.082031 386.667969 373.75 386.929688 373.601562 C 387.1875 373.453125 387.519531 373.542969 387.667969 373.800781 L 400.78125 396.511719 C 401.148438 396.027344 401.492188 395.53125 401.8125 395.011719 L 395.285156 370.640625 C 395.210938 370.355469 395.378906 370.054688 395.667969 369.976562 C 395.960938 369.902344 396.257812 370.074219 396.335938 370.359375 L 402.585938 393.683594 C 403.433594 392.078125 404.085938 390.34375 404.507812 388.527344 L 404.507812 369.285156 " fill-opacity="1" fill-rule="nonzero"/></g></svg>